<svg xmlns="http://www.w3.org/2000/svg" version="1.1" xmlns:xlink="http://www.w3.org/1999/xlink" xmlns:svgjs="http://svgjs.dev/svgjs" width="1000" height="1000"><g clip-path="url(#SvgjsClipPath1259)"><rect width="1000" height="1000" fill="#ffffff"></rect><g transform="matrix(1.25,0,0,1.25,0,0)"><svg xmlns="http://www.w3.org/2000/svg" version="1.1" xmlns:xlink="http://www.w3.org/1999/xlink" xmlns:svgjs="http://svgjs.dev/svgjs" width="800" height="800"><svg viewBox="0 0 36 36" fill="none" role="img" xmlns="http://www.w3.org/2000/svg" width="800" height="800">
  <mask id="mask__beam" maskUnits="userSpaceOnUse" x="0" y="0" width="36" height="36">
    <rect width="36" height="36" fill="#FFFFFF"></rect>
  </mask>
  <g mask="url(#mask__beam)">
    <rect width="36" height="36" fill="#f2e0a0"></rect>
    <rect x="0" y="0" width="36" height="36" transform="translate(-4 8) rotate(168 18 18) scale(1)" fill="#8cb0b0" rx="36"></rect>
    <g transform="translate(0 4) rotate(-8 18 18)">
      <path d="M13,19 a1,0.75 0 0,0 10,0" fill="#000000"></path>
      <rect x="11" y="14" width="1.5" height="2" rx="1" stroke="none" fill="#000000"></rect>
      <rect x="23" y="14" width="1.5" height="2" rx="1" stroke="none" fill="#000000"></rect>
    </g>
  </g>
</svg></svg></g></g><defs><clipPath id="SvgjsClipPath1259"><rect width="1000" height="1000" x="0" y="0" rx="500" ry="500"></rect></clipPath></defs></svg>